<?xml version="1.0" standalone="no"?>
<!DOCTYPE svg PUBLIC "-//W3C//DTD SVG 20010904//EN"
 "http://www.w3.org/TR/2001/REC-SVG-20010904/DTD/svg10.dtd">
<svg version="1.0" xmlns="http://www.w3.org/2000/svg"
 width="720.000000pt" height="1080.000000pt" viewBox="0 0 720.000000 1080.000000"
 preserveAspectRatio="xMidYMid meet">
<metadata>
Created by potrace 1.16, written by Peter Selinger 2001-2019
</metadata>
<g transform="translate(0.000000,1080.000000) scale(0.100000,-0.100000)"
fill="#000000" stroke="none">
<path d="M0 6780 c0 -2211 2 -4020 5 -4020 23 0 348 172 415 220 47 34 186
127 310 207 124 81 275 179 335 218 61 40 152 98 203 129 50 32 92 64 92 72 0
8 9 14 21 14 11 0 62 25 114 55 92 54 148 69 158 43 3 -10 9 -10 26 0 27 16
31 15 31 -4 0 -28 34 -10 41 21 4 17 7 26 8 21 0 -5 6 -5 13 0 7 5 24 9 37 9
32 0 81 43 81 72 0 16 4 21 15 17 8 -4 15 -2 15 4 0 8 19 14 90 28 8 2 20 -2
28 -8 15 -13 32 4 32 30 0 25 34 73 47 67 16 -6 64 15 58 25 -3 4 2 14 11 21
14 11 18 11 28 -1 17 -23 31 -21 57 6 23 24 23 26 6 36 -17 9 -17 11 -2 28 16
18 13 40 -5 40 -5 0 -17 -14 -26 -31 -11 -22 -21 -30 -34 -26 -11 3 -21 0 -23
-7 -2 -6 -7 -8 -11 -5 -3 3 0 19 8 34 8 16 18 64 22 107 6 75 17 97 31 62 8
-22 85 -91 141 -129 140 -91 205 -122 342 -164 32 -10 30 -10 -25 -7 -33 3
-49 2 -35 -1 14 -2 29 -9 35 -14 5 -5 23 -10 40 -10 l30 -1 -30 -8 c-16 -4
-23 -8 -14 -9 9 0 21 -12 27 -26 7 -15 20 -25 32 -25 14 0 20 -7 20 -24 0 -13
7 -27 16 -30 11 -4 14 -13 11 -28 -10 -35 8 -56 48 -55 19 1 41 -5 48 -12 10
-11 8 -13 -11 -8 -30 7 -52 -1 -52 -19 0 -8 -11 -19 -24 -25 -34 -16 -39 -62
-11 -89 12 -11 26 -20 32 -20 20 0 44 49 37 77 -4 22 -3 25 5 13 6 -8 11 -23
11 -33 0 -13 7 -17 26 -15 20 2 28 -3 35 -20 8 -20 6 -22 -16 -16 -28 7 -46
-19 -26 -39 18 -18 13 -37 -10 -37 -17 0 -20 5 -17 25 6 28 2 31 -17 12 -19
-20 12 -56 53 -62 28 -3 34 0 43 22 5 13 7 29 3 34 -3 5 2 9 10 9 9 0 16 9 16
20 0 23 4 24 32 9 20 -11 19 -12 -11 -27 -30 -14 -32 -19 -29 -56 3 -41 3 -41
-32 -39 -19 1 -46 4 -60 7 -21 6 -22 5 -5 -3 20 -10 19 -10 -2 -17 -13 -3 -23
-9 -23 -13 0 -3 -19 -5 -42 -5 -49 2 -70 -4 -62 -17 3 -5 34 -9 70 -9 36 0 64
-4 64 -10 0 -5 20 -10 44 -10 25 0 48 -5 51 -10 3 -6 15 -10 25 -10 10 0 33
-8 52 -17 18 -9 39 -19 47 -23 22 -10 25 -30 4 -30 -15 0 -16 -2 -3 -10 12 -8
10 -10 -9 -10 -20 0 -21 -2 -11 -15 15 -18 26 -16 -125 -17 -89 0 -101 -2 -65
-8 25 -5 68 -9 96 -9 54 -1 81 -18 71 -46 -4 -8 -2 -17 3 -20 6 -4 10 -20 10
-36 0 -18 8 -38 19 -47 13 -11 21 -35 24 -72 4 -44 3 -50 -5 -27 -5 15 -17 27
-26 27 -14 0 -14 -1 1 -12 20 -16 23 -83 8 -238 -15 -156 -29 -301 -30 -322
-1 -11 -6 -15 -16 -12 -11 4 -13 2 -9 -9 3 -8 1 -18 -5 -22 -6 -3 -11 -14 -11
-25 0 -13 5 -17 18 -13 16 4 18 0 14 -29 -2 -18 -12 -41 -20 -51 -13 -14 -14
-24 -5 -47 11 -29 -3 -109 -27 -155 -6 -11 -12 -31 -14 -45 -4 -40 -28 -81
-43 -76 -8 4 -11 1 -7 -5 7 -12 -25 -89 -37 -89 -5 0 -13 9 -19 20 -6 11 -15
20 -21 20 -6 0 -6 -8 1 -21 9 -16 8 -24 -4 -38 -22 -24 -20 -41 3 -41 17 0 18
-3 8 -25 -7 -14 -15 -25 -19 -25 -3 0 -4 -9 -1 -20 3 -11 -1 -27 -8 -36 -10
-13 -10 -17 2 -25 8 -5 21 -9 30 -9 27 0 192 -62 305 -115 17 -8 91 -37 164
-65 73 -28 155 -62 182 -76 26 -13 48 -22 48 -19 0 3 12 -6 27 -20 15 -14 33
-25 40 -25 6 0 13 -4 15 -8 2 -5 37 -31 78 -57 41 -27 77 -52 80 -55 3 -3 39
-34 80 -70 93 -81 210 -205 210 -223 0 -3 -6 -12 -13 -19 -7 -7 -32 -52 -56
-100 -42 -86 -66 -111 -77 -83 -4 8 -13 15 -22 15 -11 0 -8 -8 13 -30 l30 -31
-28 -53 c-31 -58 -66 -80 -68 -43 -1 17 -2 18 -6 5 -9 -35 -25 -19 -18 18 6
34 5 36 -10 20 -22 -21 -32 -20 -45 4 -6 11 -16 17 -22 14 -7 -5 -9 -1 -5 9 3
10 3 18 -1 18 -42 7 -61 6 -57 -2 4 -5 1 -9 -4 -9 -6 0 -11 10 -11 23 0 16
-10 26 -40 39 l-40 17 22 -32 c12 -18 28 -38 35 -45 7 -7 13 -18 13 -23 0 -6
-21 12 -46 40 -34 37 -50 48 -59 41 -6 -5 -14 -7 -18 -4 -8 8 -47 -5 -47 -16
0 -5 27 -37 60 -72 33 -35 60 -69 60 -75 0 -7 4 -13 8 -13 11 0 48 -68 41 -75
-3 -3 -26 25 -50 62 -24 37 -51 69 -59 72 -11 3 -10 0 3 -13 9 -10 17 -21 17
-26 0 -5 11 -21 24 -37 13 -15 27 -39 31 -53 6 -21 3 -19 -16 9 -13 19 -30 36
-38 39 -8 3 -5 -8 9 -26 12 -16 20 -36 17 -44 -3 -8 -9 -2 -17 17 -7 17 -14
25 -17 18 -2 -7 0 -21 6 -32 6 -11 11 -27 11 -36 0 -9 9 -35 19 -59 11 -23 30
-67 41 -97 12 -30 35 -82 51 -117 16 -35 32 -74 35 -87 l6 -25 254 2 c174 1
254 5 254 12 0 7 3 8 8 1 10 -15 205 -15 214 -1 6 8 8 8 8 0 0 -12 73 -12 175
-1 38 4 47 3 25 -2 -26 -6 -13 -8 53 -8 62 1 87 4 87 13 0 7 4 16 10 19 6 4 7
-1 3 -11 -5 -14 -3 -15 14 -6 14 8 30 7 59 -3 49 -18 74 -19 74 -2 0 8 4 7 10
-3 8 -12 10 -10 9 10 -4 49 0 58 21 53 11 -3 27 0 35 7 8 7 15 9 15 4 0 -12
20 19 20 31 0 6 -5 3 -10 -5 -9 -13 -10 -13 -11 0 0 10 -3 8 -9 -5 -8 -18 -9
-18 -9 -2 -1 10 -6 15 -11 12 -8 -5 -7 -12 2 -22 11 -14 7 -15 -32 -9 -33 4
-41 3 -30 -5 11 -8 6 -9 -22 -4 -25 4 -38 2 -41 -7 -3 -7 -6 -8 -6 -2 -1 12
-61 6 -61 -7 0 -4 -9 -7 -20 -6 -11 1 -20 7 -20 13 0 7 9 10 23 7 17 -4 19 -3
7 6 -11 8 -5 9 25 5 30 -4 36 -3 25 5 -13 9 -13 11 3 11 9 0 17 -4 17 -9 0 -4
11 -6 25 -3 30 5 26 14 -7 17 -52 6 -54 6 -33 16 15 7 8 8 -25 5 -58 -7 -23 9
43 18 53 8 56 20 5 24 -25 2 -29 0 -18 -8 11 -7 5 -8 -20 -4 -19 4 -39 11 -45
16 -7 7 1 8 22 3 25 -5 34 -2 42 14 15 28 14 31 -14 31 -29 0 -34 -16 -7 -24
10 -3 6 -4 -8 -3 -14 1 -25 8 -25 16 0 8 -9 18 -20 22 -11 4 1 5 29 2 47 -6
48 -6 41 18 -14 47 -33 68 -57 62 -13 -3 -20 -3 -16 2 4 4 28 8 55 10 26 2 54
3 61 4 7 1 10 6 7 11 -3 6 -25 8 -48 5 -23 -2 -34 -2 -25 1 10 3 18 10 18 15
0 5 11 7 25 3 26 -6 36 9 13 20 -10 5 -10 7 -1 12 7 3 13 10 13 16 0 6 -6 6
-15 -2 -18 -15 -20 1 -3 18 7 7 8 12 2 12 -6 0 -16 -12 -22 -26 -7 -14 -8 -23
-2 -19 5 3 10 1 10 -4 0 -6 -18 -14 -40 -17 -22 -4 -40 -11 -40 -16 0 -5 4 -6
10 -3 11 7 14 -8 4 -18 -9 -9 -35 4 -28 14 3 5 -12 8 -33 8 -38 -1 -38 -1 -8
-9 27 -7 27 -8 5 -8 -14 0 -36 4 -50 8 l-25 8 25 2 c23 1 23 2 5 10 -13 5 2 7
40 4 43 -3 54 -2 40 5 -18 9 -18 10 -2 10 10 1 25 15 33 34 12 26 14 27 10 7
-4 -20 -1 -26 14 -26 15 0 18 5 13 30 -6 27 -4 29 18 23 13 -4 30 -7 37 -7 7
0 10 -5 7 -10 -7 -12 2 -12 30 -1 16 7 13 9 -20 15 -22 4 -47 12 -55 17 -11 7
-5 8 20 4 24 -4 31 -3 21 4 -11 7 -7 10 19 13 34 3 50 30 28 45 -7 4 -8 1 -3
-7 6 -10 1 -12 -25 -7 -18 4 -39 7 -46 7 -8 0 -14 4 -14 9 0 4 12 7 28 5 22
-3 21 -2 -7 7 -29 9 -31 12 -17 22 9 7 15 22 14 34 -2 12 0 22 5 22 29 3 35
-2 41 -39 3 -22 11 -40 17 -40 5 0 9 8 7 17 -2 11 6 19 22 24 24 7 24 7 -5 9
-30 2 -30 2 -5 10 17 5 19 8 8 9 -10 1 -18 8 -18 17 0 15 -8 16 -57 10 -101
-13 -114 -13 -119 -4 -3 4 14 8 38 8 24 0 53 3 66 6 25 7 30 24 7 24 -8 0 -15
-4 -15 -10 0 -5 -13 -10 -30 -10 -16 0 -30 4 -30 10 0 14 65 23 107 15 32 -6
35 -9 18 -15 -15 -6 -16 -9 -4 -9 9 -1 29 12 45 29 16 16 35 30 42 30 15 0 16
-26 1 -36 -6 -3 -9 -17 -6 -30 2 -13 -1 -25 -7 -28 -6 -2 -3 -5 7 -5 14 -1 17
4 12 19 -4 12 -2 20 5 20 7 0 10 7 6 15 -3 9 0 15 8 15 18 0 15 33 -4 42 -11
5 -8 7 8 7 31 1 18 21 -14 21 -30 0 -64 -17 -64 -31 0 -28 -25 -36 -98 -31
-47 3 -77 1 -81 -6 -4 -6 -19 -8 -41 -3 -35 7 -34 7 20 16 30 4 72 8 92 8 28
-1 35 3 31 13 -3 8 -13 12 -22 10 -9 -3 -34 -7 -56 -10 -28 -4 -33 -3 -15 3
24 7 24 8 -10 16 -34 7 -34 8 -11 17 13 5 29 7 35 4 6 -2 2 -5 -9 -6 l-20 -1
20 -9 c11 -5 31 -9 45 -9 23 0 23 1 5 9 -17 7 -14 9 15 10 19 1 29 4 22 7 -6
2 -10 9 -6 14 3 5 0 9 -5 9 -6 0 -11 -4 -11 -10 0 -5 -5 -10 -11 -10 -5 0 -8
4 -5 9 3 5 -11 16 -32 25 l-37 16 45 -5 45 -5 -39 10 c-57 15 -59 23 -5 15 30
-4 49 -3 53 4 5 7 -10 11 -46 12 l-53 1 48 8 c69 12 73 24 7 16 -37 -4 -49 -3
-35 3 11 5 35 10 54 10 29 1 32 3 21 16 -16 19 -13 22 36 34 31 7 33 9 13 10
-15 1 -42 7 -60 15 l-34 14 30 7 c60 13 69 21 24 21 -24 0 -47 -5 -51 -10 -9
-14 -22 0 -13 13 3 6 33 11 66 11 32 0 59 4 59 8 0 4 -22 7 -50 6 -27 -2 -52
1 -55 6 -3 4 16 9 42 9 27 1 56 2 66 2 9 0 15 4 12 9 -3 4 -23 6 -45 3 -26 -4
-40 -2 -40 6 0 10 21 15 58 14 6 -1 12 3 12 8 0 5 -5 9 -11 9 -5 0 -8 4 -4 10
3 5 13 6 22 3 11 -4 14 -2 11 8 -3 8 -14 13 -25 11 -20 -3 -38 21 -28 37 2 4
21 8 42 9 21 1 52 7 68 12 25 8 20 9 -30 6 l-60 -4 50 13 c28 7 61 14 75 15
l25 2 -25 8 c-30 10 -31 9 45 25 36 7 49 13 33 14 -16 0 -28 6 -28 11 0 13
-40 13 -60 0 -11 -7 -6 -8 18 -4 21 4 32 3 32 -5 0 -7 -21 -11 -57 -10 -32 1
-50 3 -40 6 21 5 22 22 2 29 -8 4 -15 10 -15 15 0 13 38 11 42 -2 2 -6 13 -9
23 -6 19 5 19 5 -2 12 -38 12 -26 26 17 19 26 -4 40 -3 40 4 0 6 17 13 38 15
20 2 6 2 -33 0 -38 -2 -79 -7 -89 -10 -15 -4 -18 -1 -13 11 4 9 2 16 -4 16 -6
0 -7 5 -4 10 9 15 25 12 25 -5 0 -9 9 -15 23 -14 21 0 21 1 2 8 -16 6 -8 11
35 22 l55 14 -55 5 -55 6 55 11 55 11 -50 2 -50 2 60 13 60 14 -52 -6 c-28 -2
-59 0 -68 5 -13 7 1 11 51 16 38 4 84 9 102 12 20 4 32 2 32 -5 0 -6 -6 -11
-14 -11 -11 0 -12 -5 -3 -25 12 -24 47 -35 47 -15 0 16 17 12 24 -6 11 -28 -4
-34 -41 -19 -20 8 -39 13 -42 10 -3 -3 5 -8 17 -12 22 -5 31 -23 12 -23 -5 0
-10 -6 -10 -14 0 -8 -6 -17 -12 -19 -9 -4 -9 -6 -1 -6 6 -1 9 -10 6 -21 -3
-11 0 -26 6 -34 10 -11 8 -15 -6 -19 -10 -3 -3 -5 16 -6 27 -1 31 2 22 13 -14
16 -4 46 15 46 8 0 14 -9 14 -19 0 -26 17 -36 22 -13 9 36 -7 67 -37 73 l-30
6 27 7 c15 4 29 14 32 23 3 8 11 11 18 7 8 -5 9 -2 5 10 -4 10 -10 30 -13 44
-4 15 -10 32 -14 37 -12 15 -15 49 -7 63 13 20 27 14 27 -14 0 -21 4 -24 20
-19 11 4 20 2 20 -4 0 -6 -10 -11 -22 -12 -13 0 -17 -3 -11 -6 8 -3 11 -14 7
-29 -6 -25 10 -54 30 -54 7 0 7 3 -1 8 -10 7 -10 12 0 27 16 21 41 11 34 -14
-2 -11 2 -17 12 -17 24 0 19 44 -7 73 -12 14 -22 27 -22 29 0 2 -9 13 -20 24
-29 29 -25 36 22 39 52 3 64 11 17 11 l-34 1 30 14 30 13 -30 2 c-29 1 -29 2
10 14 26 8 35 14 25 18 -9 4 -5 7 12 7 15 1 30 -3 33 -9 3 -5 15 -10 26 -10
15 0 18 5 14 23 -3 12 -7 33 -8 46 -2 14 -9 27 -15 29 -8 2 -7 8 3 19 10 9 22
12 33 8 12 -5 13 -9 5 -12 -7 -3 -13 -9 -13 -14 0 -6 4 -7 10 -4 6 3 10 -2 10
-12 0 -25 28 -63 46 -63 20 0 39 20 47 48 8 33 -1 52 -30 63 -20 8 -23 12 -13
24 6 7 21 16 33 18 22 4 22 4 0 6 -28 1 -31 35 -6 63 15 17 15 18 0 18 -10 0
-17 7 -17 15 0 8 6 15 14 15 17 0 32 40 19 49 -6 3 -16 31 -23 61 -7 30 -21
63 -31 73 -13 12 -19 32 -19 62 0 33 -4 45 -15 45 -8 0 -15 5 -15 10 0 6 6 10
14 10 44 0 56 62 19 103 -28 30 -51 21 -63 -25 -6 -24 -13 -47 -15 -53 -2 -5
-4 35 -4 90 -1 117 -23 246 -49 283 -11 15 -27 52 -36 82 -9 30 -24 69 -32 87
-8 17 -19 66 -24 108 -5 41 -14 84 -20 94 -11 22 -108 111 -121 111 -8 0 -15
22 -40 125 -23 96 -78 195 -108 195 -6 0 -13 5 -16 10 -11 18 24 11 44 -9 21
-21 64 -22 84 -2 6 6 20 11 31 11 11 0 33 4 50 10 17 5 43 12 58 15 18 3 29
14 37 36 6 17 14 28 19 25 9 -5 37 9 38 21 4 34 18 43 70 43 30 0 54 -4 54
-10 0 -5 11 -10 24 -10 14 0 28 -4 31 -10 11 -18 25 -10 25 15 0 23 4 25 40
25 29 0 40 -4 40 -15 0 -9 9 -15 22 -15 12 0 30 -7 40 -17 17 -15 18 -15 18 0
0 11 8 17 24 17 13 0 31 3 39 6 12 4 16 -3 19 -28 l3 -33 26 28 c27 27 49 35
49 17 0 -5 18 -10 40 -10 22 0 40 5 40 10 0 24 17 6 31 -34 11 -32 13 -48 6
-55 -17 -17 -40 -13 -33 4 3 8 1 15 -4 15 -6 0 -10 -4 -10 -10 0 -5 -6 -10
-14 -10 -20 0 -29 -34 -21 -76 5 -30 3 -35 -19 -44 -14 -5 -33 -7 -41 -4 -8 4
-15 1 -15 -5 0 -6 9 -11 20 -11 13 0 20 -7 20 -18 0 -11 10 -24 23 -30 l22
-11 -23 -7 c-19 -5 -23 -12 -20 -42 3 -35 28 -59 28 -27 0 9 5 13 10 10 6 -3
10 -16 10 -28 1 -22 1 -22 15 -3 19 25 19 53 0 90 -18 35 -20 69 -2 64 6 -3
13 -21 15 -41 3 -40 20 -52 19 -14 0 12 3 30 7 39 5 11 0 24 -13 37 -27 27
-26 30 7 28 26 -2 27 0 25 41 -1 23 2 42 8 42 5 0 9 -6 9 -14 0 -17 22 -26 66
-26 30 0 34 3 34 25 0 23 4 25 40 25 22 0 40 -4 40 -10 0 -5 5 -10 11 -10 7 0
8 4 2 13 -5 6 -10 34 -11 61 l-3 49 41 -6 c30 -4 40 -2 40 9 0 8 -9 14 -20 14
-12 0 -32 7 -45 16 -14 9 -62 20 -112 25 -160 15 -255 28 -261 34 -3 3 -7 12
-8 20 -2 12 22 14 154 11 171 -4 205 -10 362 -61 173 -55 208 -65 229 -65 10
0 21 -4 23 -9 2 -5 66 -26 143 -46 77 -20 165 -47 195 -59 l55 -22 -2 -54 c-1
-30 0 -49 3 -42 9 19 31 14 52 -13 11 -14 23 -25 26 -25 3 0 6 1681 6 3735 l0
3735 -3600 0 -3600 0 0 -4020z m3586 1701 c-9 -14 44 -23 59 -11 9 8 15 8 20
0 3 -6 10 -8 14 -5 5 2 6 -7 3 -20 -4 -25 13 -36 21 -12 3 9 7 9 18 0 16 -13
30 -12 72 5 16 7 33 12 38 12 5 0 9 5 9 12 0 6 3 8 6 5 4 -4 2 -12 -4 -19 -8
-10 0 -13 36 -12 26 1 54 3 62 5 9 3 16 -4 18 -17 2 -14 12 -24 27 -26 14 -3
22 -1 19 3 -3 5 2 9 11 9 9 0 13 5 10 10 -4 6 -11 8 -16 5 -5 -4 -9 -1 -9 4 0
19 32 12 37 -8 4 -15 13 -18 49 -15 25 1 42 -1 39 -7 -4 -5 -1 -9 4 -9 6 0 11
5 11 10 0 6 17 10 38 9 33 -1 34 -2 12 -9 l-25 -8 26 -1 c40 -2 127 -51 90
-51 -6 0 -11 -5 -11 -11 0 -7 11 -9 29 -6 26 5 28 4 23 -21 -3 -15 -9 -33 -15
-40 -5 -7 -7 -16 -3 -19 4 -4 11 -1 16 7 8 13 10 13 10 0 0 -9 33 -49 73 -90
72 -75 87 -94 107 -140 7 -14 20 -42 30 -62 15 -30 15 -38 4 -38 -10 0 -11 -6
-5 -22 5 -13 12 -22 17 -21 14 3 29 -30 16 -35 -17 -5 -15 -20 8 -52 11 -15
17 -30 14 -32 -7 -7 28 -78 38 -78 4 0 8 -7 8 -15 0 -24 38 -92 59 -108 12 -8
20 -24 19 -38 -3 -52 2 -79 17 -79 9 0 12 -6 8 -17 -4 -10 -8 -12 -10 -6 -3 8
-18 6 -49 -8 -25 -10 -55 -19 -66 -19 -11 0 -31 -9 -45 -20 -14 -11 -41 -22
-62 -26 -20 -3 -50 -12 -68 -20 -17 -8 -38 -11 -47 -8 -11 4 -30 -9 -59 -40
-34 -35 -46 -43 -56 -33 -9 9 -13 7 -17 -11 -4 -12 -10 -22 -15 -22 -5 0 -9
-7 -9 -16 0 -8 5 -12 10 -9 6 3 10 1 10 -4 0 -6 -4 -11 -10 -11 -5 0 -10 -10
-10 -22 0 -19 -2 -20 -10 -8 -8 13 -10 13 -10 -1 0 -9 -11 -21 -24 -27 -14 -6
-33 -24 -43 -39 -10 -15 -26 -37 -36 -48 -11 -11 -26 -30 -34 -42 -9 -13 -21
-23 -29 -23 -7 0 -17 -12 -20 -27 -4 -16 -12 -35 -19 -43 -42 -51 -75 -157
-75 -245 0 -74 22 -245 31 -245 4 0 7 -52 6 -117 -2 -85 1 -117 11 -120 7 -3
12 -21 12 -44 0 -21 4 -39 8 -39 5 0 15 -18 22 -40 9 -27 19 -40 32 -40 11 0
18 -7 18 -20 0 -11 5 -20 11 -20 14 0 69 -61 69 -77 0 -6 9 -15 20 -18 20 -6
28 -25 11 -25 -5 0 -13 -10 -17 -22 -7 -22 -7 -22 -15 -3 -6 15 -8 16 -8 3 -1
-12 -9 -15 -36 -13 -40 4 -58 13 -50 26 4 5 -1 9 -9 9 -10 0 -16 9 -17 23 0
12 -3 16 -6 10 -2 -7 -12 -13 -22 -13 -24 0 -144 -119 -137 -136 3 -8 -1 -14
-10 -14 -8 0 -22 -7 -30 -15 -36 -35 -134 2 -134 51 0 10 -5 14 -15 10 -8 -3
-16 0 -16 7 -1 7 -2 18 -3 26 -1 17 -26 28 -26 12 0 -8 -10 -6 -30 4 -16 8
-45 15 -63 15 -49 0 -168 -38 -194 -62 l-22 -21 -37 37 c-24 24 -40 34 -47 27
-17 -17 2 -75 38 -116 34 -38 36 -39 102 -40 57 0 68 3 71 18 2 12 -3 17 -20
18 -22 0 -22 1 -3 8 11 5 25 4 33 -1 8 -7 16 -7 25 0 9 8 24 7 52 -2 28 -10
44 -11 56 -3 13 8 25 4 56 -21 22 -17 46 -38 53 -47 7 -8 23 -15 37 -15 13 0
40 -9 61 -19 20 -10 72 -24 115 -31 42 -7 77 -17 77 -21 0 -5 6 -9 14 -9 8 0
16 -6 19 -12 5 -15 92 -42 106 -34 5 4 28 -1 51 -10 32 -13 39 -20 35 -35 -3
-10 0 -28 8 -41 7 -13 13 -30 12 -38 -1 -8 -3 -23 -3 -32 -2 -14 -11 -18 -42
-18 -38 0 -52 -12 -30 -25 6 -4 8 -11 4 -16 -3 -6 -16 1 -29 16 -14 14 -35 25
-49 25 -14 0 -45 6 -68 14 -24 8 -78 15 -121 15 -65 1 -80 -2 -94 -19 -10 -11
-23 -20 -30 -20 -18 0 -16 -16 4 -46 11 -17 18 -21 23 -13 15 24 32 -3 27 -43
-4 -33 -3 -37 9 -27 8 6 14 28 15 48 l1 36 11 -32 c15 -40 32 -57 24 -23 l-6
25 20 -24 c10 -13 19 -18 19 -12 0 6 5 11 10 11 15 0 12 -16 -5 -34 -8 -8 -15
-19 -15 -25 0 -6 -4 -11 -10 -11 -5 0 -10 7 -10 15 0 8 -5 15 -11 15 -6 0 -9
-6 -6 -14 3 -8 0 -17 -8 -20 -8 -3 -16 0 -18 7 -3 7 -8 4 -12 -8 -8 -21 -44
-54 -58 -55 -5 0 -7 8 -6 18 4 41 0 46 -23 25 -18 -16 -28 -19 -47 -12 -16 6
-28 6 -35 -1 -14 -14 -26 -12 -26 4 0 12 -7 12 -36 4 -24 -6 -39 -6 -43 0 -10
15 -91 26 -91 12 0 -8 -14 -10 -50 -5 -34 5 -50 3 -50 -4 0 -14 -52 -3 -62 13
-7 11 9 36 24 36 5 0 13 -10 19 -22 8 -21 9 -20 4 5 -4 19 -2 26 5 22 5 -3 10
1 10 9 0 16 20 20 69 16 15 -1 21 2 16 9 -3 6 -11 8 -17 5 -7 -4 -8 -2 -4 4 4
7 14 12 22 12 8 0 14 9 14 20 0 11 5 20 10 20 6 0 10 7 10 15 0 13 -7 15 -36
9 -27 -5 -35 -4 -30 5 8 12 -6 15 -18 4 -4 -5 -20 -9 -34 -9 -30 -2 -74 -14
-140 -38 -24 -9 -55 -18 -70 -19 -15 -2 -40 -9 -57 -16 -16 -7 -42 -13 -57
-14 -15 -1 -28 -8 -28 -15 0 -7 -11 -24 -25 -38 -25 -25 -32 -44 -16 -44 5 0
8 -7 7 -16 0 -10 12 -20 34 -27 31 -11 35 -16 38 -52 2 -22 10 -48 19 -57 8
-9 13 -25 11 -35 -2 -10 5 -22 16 -28 11 -5 27 -22 35 -36 42 -70 56 -89 66
-89 5 0 37 -25 70 -56 33 -31 77 -68 98 -82 20 -13 37 -30 37 -36 0 -26 124
-79 210 -91 25 -4 55 -11 67 -17 17 -8 26 -8 39 3 13 11 18 11 21 2 3 -7 12
-13 20 -13 24 0 57 -42 71 -88 12 -39 32 -66 32 -42 0 6 5 8 11 4 6 -3 7 -9 3
-13 -5 -3 -19 -20 -30 -37 -20 -28 -21 -31 -5 -41 15 -10 15 -12 -1 -29 -17
-18 -18 -18 -18 1 0 16 -7 12 -38 -18 -24 -23 -47 -37 -64 -37 -14 0 -41 -6
-60 -14 -19 -8 -48 -15 -64 -15 -16 -1 -36 -1 -44 -2 -82 -2 -130 11 -196 53
-71 46 -188 154 -216 199 -9 14 -19 60 -23 102 -5 55 -11 77 -21 77 -10 0 -14
13 -14 40 0 30 -4 40 -16 40 -23 0 -44 25 -44 54 0 15 -6 26 -13 26 -12 0 -43
66 -39 83 1 4 -5 10 -13 13 -8 4 -15 10 -15 15 0 5 -9 18 -19 28 -15 15 -18
28 -14 60 6 45 -9 55 -33 24 -12 -16 -13 -13 -14 26 0 25 -10 67 -22 93 l-22
49 -17 -23 c-17 -22 -17 -22 -17 32 0 71 -3 81 -29 103 -13 10 -23 27 -23 38
0 11 -11 31 -25 45 -14 14 -32 38 -40 55 -9 16 -23 33 -31 36 -7 3 -14 14 -14
24 0 10 -4 19 -8 19 -5 0 -17 18 -27 40 -10 22 -23 40 -30 40 -6 0 -17 17 -24
38 -8 20 -24 47 -37 59 -13 12 -24 31 -24 43 0 11 -6 20 -12 20 -15 0 -68 109
-68 140 0 12 -4 19 -9 16 -15 -9 -54 66 -57 107 -1 21 -6 43 -12 50 -10 12
-18 49 -29 122 -3 22 -12 50 -21 63 -15 23 -27 67 -42 161 -5 29 -13 58 -19
64 -13 13 -15 246 -2 266 14 23 60 19 87 -6 14 -13 36 -23 50 -23 14 0 37 -9
51 -20 14 -11 39 -19 56 -18 18 0 48 -9 67 -21 19 -11 49 -21 65 -21 17 0 41
-3 54 -7 20 -5 21 -8 8 -12 -9 -3 28 -7 81 -8 60 -1 98 -5 100 -12 2 -6 13
-11 23 -11 11 0 18 4 15 9 -3 4 14 4 37 -1 68 -15 128 -9 197 18 22 9 38 20
35 25 -3 4 -12 6 -20 2 -10 -3 -15 1 -15 12 0 12 5 15 23 9 12 -3 24 -11 25
-15 6 -15 46 -9 72 10 17 14 29 17 41 11 11 -7 21 -4 33 8 14 17 13 22 -19 71
-40 61 -39 57 -21 94 13 24 13 27 -2 27 -25 0 2 22 30 24 13 1 22 7 21 13 -1
6 9 13 23 16 16 3 24 0 21 -7 -3 -8 20 -12 75 -12 56 -1 83 -5 88 -15 8 -11
10 -11 14 1 14 44 14 89 0 101 -8 7 -13 19 -11 28 5 25 -40 109 -67 123 -13 7
-42 29 -63 49 -21 20 -45 39 -53 42 -8 3 -1 6 17 6 17 1 35 -3 38 -9 8 -13 45
-13 45 0 0 5 -13 16 -28 24 -23 12 -29 22 -30 50 -1 22 3 36 11 36 8 0 7 4 -3
10 -11 7 -11 10 -2 10 7 0 10 5 7 11 -5 7 -16 2 -31 -12 -27 -25 -27 -25 -42
16 -9 26 -11 27 -11 8 -2 -38 -20 -26 -33 22 -7 25 -18 45 -26 45 -7 0 -11 -4
-7 -9 10 -17 -13 -21 -29 -5 -11 10 -16 11 -16 3 0 -8 -7 -6 -19 5 -12 11 -27
15 -38 12 -13 -4 -28 3 -48 24 -34 36 -39 36 -51 9 -9 -20 -10 -20 -38 6 -16
14 -34 24 -41 21 -8 -3 -19 2 -25 10 -7 8 -23 14 -35 14 -12 0 -28 7 -35 15
-14 17 -60 21 -60 5 0 -5 8 -11 18 -11 16 -1 16 -2 0 -6 -9 -2 -27 1 -40 8
-19 10 -20 13 -6 18 14 5 15 9 3 24 -9 13 -36 22 -84 29 -74 11 -89 21 -46 32
14 4 23 10 21 15 -3 5 6 26 20 46 18 28 22 40 13 45 -8 6 -5 10 8 14 35 11 83
73 83 106 0 17 7 44 15 59 8 16 14 45 13 65 -1 23 6 47 20 65 12 16 24 41 28
55 3 14 10 24 15 21 4 -3 13 11 18 32 6 21 19 44 30 52 10 8 17 20 15 26 -3 7
3 15 13 19 14 6 15 9 4 16 -10 6 -5 13 20 26 30 17 32 19 12 22 -31 5 -27 42
5 42 17 0 23 -4 18 -15 -3 -8 -1 -15 3 -15 5 0 16 -3 25 -6 11 -4 16 -1 16 10
0 9 -7 16 -15 16 -22 0 -18 17 5 23 13 3 20 0 20 -9 0 -7 9 -18 20 -24 11 -6
20 -7 20 -3 -1 12 -34 49 -50 56 -8 3 7 6 33 6 40 1 49 5 57 24 7 17 9 18 9 5
1 -23 13 -23 34 2 10 12 29 20 50 20 18 0 43 7 55 16 27 19 45 9 19 -10 -17
-13 -24 -36 -9 -36 13 1 92 76 92 88 0 7 9 12 20 12 11 0 20 -7 20 -15 0 -16
16 -20 24 -6 3 5 15 7 26 4 12 -3 32 5 52 21 35 28 42 31 34 17z m-701 -1175
c61 -15 118 -31 127 -36 10 -6 26 -10 37 -10 10 0 34 -7 52 -15 33 -14 32 -19
-3 -16 -10 1 -26 -3 -38 -9 -13 -7 -20 -7 -20 0 0 5 -10 10 -23 10 -13 0 -27
3 -30 6 -13 14 -100 15 -108 2 -6 -9 -38 -14 -101 -15 -114 -3 -138 -8 -138
-31 0 -14 -2 -15 -10 -2 -8 13 -13 12 -40 -4 -17 -10 -34 -16 -36 -13 -3 3
-19 1 -35 -3 -26 -8 -29 -6 -30 13 -1 17 -2 18 -6 5 -2 -10 -13 -18 -23 -18
-11 0 -24 -8 -29 -17 -9 -16 -12 -16 -21 -3 -6 10 -10 11 -10 3 0 -7 -9 -13
-21 -13 -11 0 -29 -5 -40 -10 -17 -10 -19 -7 -19 30 0 25 -5 40 -12 40 -10 0
-10 2 -1 8 7 4 11 18 10 30 -1 19 -6 22 -25 17 -21 -5 -22 -4 -10 8 54 54 164
77 348 73 116 -2 167 -8 255 -30z m1428 -578 l28 -32 -50 -48 c-28 -27 -58
-60 -67 -73 -20 -30 -17 -32 90 -40 87 -6 103 -12 87 -28 -13 -13 -15 -31 -3
-23 5 3 25 -3 45 -14 39 -21 188 -61 200 -53 4 2 7 -1 7 -8 0 -9 3 -9 14 0 10
8 16 9 21 1 3 -5 14 -10 24 -10 10 0 32 -7 49 -16 18 -8 36 -13 42 -9 6 3 7 0
4 -9 -4 -11 0 -16 10 -16 9 0 19 -7 22 -15 4 -8 15 -15 25 -15 18 0 24 -16 21
-60 0 -8 3 -17 8 -20 10 -6 32 -279 24 -292 -3 -4 -5 -44 -6 -88 0 -55 -5 -85
-14 -95 -8 -7 -14 -31 -15 -52 0 -30 -2 -34 -9 -18 -9 20 -9 20 -9 0 -1 -11
-7 -29 -15 -40 -7 -11 -16 -33 -20 -48 -4 -16 -35 -58 -69 -94 -34 -36 -61
-69 -59 -75 4 -14 -38 -58 -55 -58 -7 0 -13 -4 -13 -10 0 -5 -5 -10 -11 -10
-7 0 -17 -7 -24 -16 -6 -9 -24 -16 -38 -16 -29 0 -60 19 -52 32 3 4 -2 13 -10
20 -12 10 -15 9 -15 -4 0 -9 -5 -16 -11 -16 -5 0 -7 5 -4 10 4 6 -5 24 -19 41
-14 17 -26 35 -26 40 0 5 -7 9 -15 9 -19 0 -41 36 -49 82 -4 21 -14 45 -24 54
-12 13 -17 37 -18 95 -1 43 -5 83 -9 89 -3 5 -4 14 -1 19 7 11 -14 121 -24
121 -4 0 -12 11 -18 25 -6 14 -18 25 -26 25 -7 0 -19 7 -26 15 -7 8 -21 15
-31 15 -15 0 -19 8 -19 40 0 22 -3 40 -8 40 -11 0 -40 60 -47 100 -3 19 -9 60
-13 90 l-6 55 -7 -45 c-3 -25 -4 7 -2 70 5 111 25 210 43 210 5 0 12 17 15 38
11 61 15 71 30 66 8 -3 16 4 20 18 26 81 81 101 128 46z m-2581 -929 c12 -6
33 -24 49 -40 31 -32 35 -54 43 -221 5 -102 4 -108 -17 -123 -12 -8 -18 -15
-13 -15 5 0 3 -6 -3 -14 -13 -16 -55 -10 -72 10 -6 8 -17 14 -24 14 -8 0 -22
11 -33 25 -26 33 -41 252 -22 312 7 21 14 44 16 51 4 15 48 16 76 1z m-372
-288 c3 -4 12 -11 20 -14 8 -4 29 -16 45 -27 17 -11 37 -23 45 -27 29 -13 150
-125 150 -139 0 -40 62 -14 81 34 5 12 15 22 24 22 18 0 19 -12 4 -27 -8 -8
-5 -14 10 -22 12 -7 21 -18 21 -26 0 -8 4 -15 10 -15 11 0 79 37 100 55 34 28
108 65 131 65 14 0 30 5 36 11 14 14 33 3 33 -18 0 -19 -44 -61 -76 -74 -13
-4 -24 -13 -24 -19 0 -12 -2 -12 40 0 64 20 89 20 99 1 12 -21 3 -37 -29 -50
-23 -9 -22 -10 13 -10 31 -1 39 -6 47 -27 12 -31 6 -44 -21 -44 -12 0 -17 -4
-13 -11 3 -6 19 -9 34 -7 23 4 29 -1 39 -29 17 -45 7 -56 -40 -48 -54 9 -50
-9 5 -25 43 -12 116 -63 106 -73 -3 -3 -43 -1 -89 5 -59 7 -86 7 -94 -1 -8 -8
-5 -11 9 -11 12 0 29 -9 39 -20 10 -11 26 -20 35 -20 10 0 23 -7 30 -15 7 -8
18 -15 26 -15 7 0 17 -6 21 -14 4 -7 27 -23 51 -35 23 -12 42 -26 42 -31 0 -6
-1 -10 -3 -10 -14 0 -232 81 -240 89 -11 11 -47 15 -47 5 0 -7 27 -34 35 -34
14 0 94 -66 95 -77 0 -7 7 -13 15 -13 18 0 105 -82 105 -98 0 -7 -2 -12 -5
-12 -7 0 -72 35 -110 60 -16 11 -47 29 -68 40 -22 12 -58 39 -82 61 -24 22
-46 36 -49 30 -9 -15 15 -60 35 -66 10 -3 21 -16 25 -28 4 -12 17 -30 30 -40
13 -10 23 -22 21 -27 -1 -4 36 -44 83 -89 83 -79 98 -106 43 -78 -39 21 -169
132 -227 195 -27 28 -53 52 -57 52 -14 0 -11 -17 6 -34 8 -8 15 -22 15 -30 0
-9 4 -16 10 -16 5 0 7 -7 4 -15 -4 -8 -1 -21 5 -29 6 -7 8 -16 4 -20 -4 -4 2
-9 14 -12 13 -4 20 -11 16 -20 -3 -8 0 -14 7 -14 7 0 10 -7 7 -14 -4 -10 -1
-13 7 -10 9 3 15 -6 19 -25 4 -18 13 -31 22 -31 8 0 15 -7 15 -17 0 -9 3 -13
7 -10 7 8 43 -42 43 -60 0 -24 -26 -13 -57 25 -17 20 -42 49 -57 65 -23 25
-96 138 -121 187 -16 32 -21 23 -21 -40 0 -51 3 -60 18 -60 10 0 18 -7 18 -15
0 -8 -4 -15 -10 -15 -5 0 -10 -5 -10 -11 0 -8 4 -9 13 0 8 6 17 8 20 4 12 -11
8 -23 -7 -23 -9 0 -12 -7 -9 -20 3 -11 10 -19 17 -18 6 2 11 -2 11 -7 0 -6 -3
-9 -7 -8 -14 5 -8 -6 18 -32 14 -14 22 -30 19 -35 -8 -13 37 -78 52 -73 19 7
27 -37 10 -55 -14 -13 -21 -6 -71 72 -31 47 -63 104 -72 126 -9 22 -20 40 -24
40 -5 0 -17 24 -27 53 l-18 52 -3 -67 c-2 -39 2 -77 9 -90 9 -16 9 -23 0 -26
-16 -5 -13 -32 4 -32 11 0 15 -12 15 -49 0 -27 6 -53 13 -59 16 -13 21 -72 7
-72 -6 0 -15 12 -21 28 -5 15 -18 45 -28 67 -30 67 -61 171 -61 203 0 17 -4
34 -10 37 -10 6 -14 -49 -12 -144 0 -24 -6 -57 -14 -73 -8 -15 -10 -28 -5 -28
10 0 34 -120 26 -129 -12 -11 -38 31 -46 71 -4 24 -13 72 -19 108 -7 37 -9 97
-6 138 4 53 3 73 -6 70 -6 -2 -13 -15 -15 -29 -6 -46 -37 -154 -49 -174 -7
-11 -22 -50 -34 -87 -17 -53 -26 -68 -41 -68 -22 0 -24 19 -5 63 7 18 16 59
21 92 4 33 18 94 31 135 27 84 28 90 15 90 -5 0 -15 -17 -21 -37 -7 -21 -16
-42 -21 -48 -5 -5 -9 -15 -9 -22 0 -13 -90 -155 -117 -185 -9 -10 -22 -18 -30
-18 -18 0 -17 25 2 44 8 8 15 22 15 32 0 10 33 83 72 163 40 80 74 149 76 154
2 4 -3 7 -11 7 -8 0 -27 -24 -42 -52 -15 -29 -43 -75 -63 -103 -41 -58 -151
-165 -169 -165 -19 0 -16 21 6 44 11 12 38 53 60 92 22 40 65 109 96 155 52
79 65 109 47 109 -5 0 -23 -20 -41 -45 -49 -68 -224 -205 -262 -205 -31 0 -22
23 23 60 74 62 238 226 238 238 0 20 -9 15 -73 -40 -34 -29 -71 -58 -82 -64
-122 -68 -166 -87 -177 -76 -13 13 6 42 28 42 7 0 18 9 24 21 7 12 18 18 26
15 8 -3 13 -2 10 3 -3 5 13 21 37 37 23 16 44 32 47 35 3 3 33 29 68 58 34 28
62 56 62 61 0 14 -31 12 -49 -3 -9 -8 -69 -35 -134 -61 -191 -77 -174 -25 25
75 96 48 127 76 71 65 -86 -17 -224 -37 -239 -34 -51 9 76 64 215 93 83 16 73
30 -21 33 -130 3 -198 12 -198 27 0 20 100 36 223 36 31 0 57 4 57 9 0 11 -12
14 -133 39 -109 23 -117 26 -117 47 0 17 18 17 145 -1 55 -7 104 -10 108 -6 4
4 -37 22 -92 40 -94 30 -121 44 -108 58 5 5 94 -6 202 -23 l40 -7 -27 22 c-14
11 -29 21 -33 21 -17 0 -115 72 -115 85 0 24 1 24 145 -41 33 -14 68 -30 77
-35 9 -5 19 -5 22 -1 5 8 -26 40 -125 134 -37 34 -38 52 -2 43 15 -3 30 -10
33 -14z m4102 -172 c-45 -44 -82 -85 -82 -89 0 -21 20 -18 56 8 34 25 63 40
79 42 3 0 26 10 52 21 46 20 79 14 51 -10 -20 -18 -112 -77 -131 -84 -20 -7
-23 -27 -4 -27 6 0 21 7 31 15 35 27 121 11 110 -20 -3 -8 -11 -15 -18 -15 -6
0 -29 -9 -51 -19 l-40 -18 128 5 c111 4 127 3 127 -11 0 -16 -10 -21 -70 -32
-43 -8 -118 -33 -139 -45 -14 -8 -13 -10 4 -11 11 -1 27 -1 35 0 8 1 57 -1
108 -5 67 -4 92 -10 92 -19 0 -16 -25 -21 -135 -30 -81 -7 -133 -21 -121 -32
5 -6 101 -29 216 -54 46 -9 69 -24 57 -35 -4 -4 -69 -2 -144 4 -100 8 -141 8
-148 0 -7 -8 -6 -9 3 -4 7 4 15 1 18 -8 3 -8 29 -20 57 -26 29 -7 57 -19 64
-27 7 -9 19 -13 28 -9 9 3 18 0 21 -8 3 -8 25 -19 50 -26 47 -13 62 -26 47
-41 -5 -5 -50 5 -108 22 -55 17 -113 34 -130 38 -16 4 -45 16 -63 25 -19 10
-37 15 -40 11 -11 -11 24 -56 59 -73 18 -10 33 -23 32 -30 -2 -7 4 -12 12 -12
8 0 15 -5 15 -12 0 -6 3 -8 7 -5 3 4 20 -4 37 -17 17 -13 62 -37 101 -54 38
-17 71 -36 74 -43 6 -20 -53 -3 -143 40 -45 22 -85 41 -91 43 -5 1 -36 21 -68
42 -90 61 -89 38 1 -58 28 -31 52 -62 52 -68 0 -13 32 -42 83 -74 20 -13 37
-29 37 -34 0 -6 9 -10 20 -10 20 0 26 -11 14 -23 -8 -8 -73 25 -112 58 -16 14
-34 25 -40 25 -6 0 -44 34 -86 75 -53 52 -76 69 -76 57 0 -10 15 -36 33 -58
45 -53 65 -103 46 -115 -11 -6 -11 -11 -2 -20 10 -10 14 -8 20 7 6 16 8 15 13
-11 3 -16 11 -29 18 -28 7 2 12 -6 12 -18 0 -15 -5 -20 -22 -17 -13 2 -23 8
-23 13 -1 6 -22 31 -48 57 -26 26 -47 53 -47 61 0 16 -20 37 -35 37 -16 0 -6
-59 15 -90 9 -14 28 -51 41 -84 13 -32 29 -61 36 -63 7 -3 13 -14 13 -24 0
-21 19 -60 35 -71 6 -5 6 -11 -2 -19 -8 -8 -18 1 -38 35 -15 25 -30 46 -34 46
-8 0 -20 22 -43 78 -7 17 -18 32 -24 32 -14 0 -43 42 -47 67 -1 10 -6 19 -10
21 -21 7 -25 -2 -22 -43 3 -31 1 -45 -7 -45 -7 0 -2 -7 10 -16 12 -8 22 -24
22 -35 0 -18 -2 -19 -27 -5 -23 12 -30 24 -38 72 -7 42 -15 60 -27 62 -14 3
-16 -10 -17 -110 0 -62 -5 -140 -10 -172 -6 -32 -8 -62 -6 -67 7 -11 -13 -22
-25 -14 -7 4 -7 11 -2 18 10 13 8 172 -3 206 -4 13 -2 21 5 21 8 0 10 9 5 28
-4 15 -6 42 -6 60 1 26 -3 32 -20 32 -20 0 -21 -4 -17 -50 3 -28 1 -53 -4 -56
-5 -4 -7 -17 -4 -30 4 -13 3 -24 -2 -24 -4 0 -16 -28 -26 -62 -20 -66 -31 -86
-43 -75 -3 4 0 19 8 34 8 14 13 35 11 46 -2 10 2 33 9 49 11 26 10 32 -4 40
-25 14 -20 29 7 22 16 -4 25 -1 29 10 4 9 1 16 -6 16 -15 0 -21 86 -7 95 5 3
10 19 10 36 0 22 -5 29 -20 29 -11 0 -22 -6 -25 -12 -2 -7 -15 -51 -30 -98
-23 -75 -90 -223 -118 -258 -6 -7 -14 -9 -18 -5 -5 5 4 33 19 64 15 30 32 68
39 84 38 94 45 116 39 122 -3 4 1 14 9 23 20 23 28 140 9 140 -8 0 -24 -21
-36 -47 -49 -107 -186 -288 -204 -270 -3 3 21 41 54 84 32 43 62 85 65 93 4 8
27 51 52 95 24 44 44 83 44 87 1 4 -10 6 -23 5 -16 -1 -41 -25 -83 -82 -65
-85 -164 -185 -184 -185 -13 0 -4 12 98 122 33 36 64 76 68 87 3 12 11 21 16
21 5 0 9 5 9 11 0 6 11 25 24 42 35 49 39 58 21 51 -8 -4 -21 -1 -28 4 -10 9
-28 -2 -73 -41 -80 -70 -159 -127 -175 -127 -7 0 -3 10 11 25 13 14 27 25 32
25 5 0 47 34 93 75 47 41 88 75 92 75 5 0 14 10 22 23 13 21 13 21 -4 7 -9 -8
-32 -13 -51 -11 -20 1 -52 -7 -84 -23 -39 -20 -50 -22 -50 -11 0 8 4 15 8 15
5 0 43 19 85 42 74 40 93 58 62 58 -8 0 -15 -4 -15 -10 0 -21 -28 -9 -32 15
-6 28 2 36 50 55 34 13 45 36 12 25 -11 -3 -20 -4 -20 -2 0 10 55 112 62 115
5 2 8 9 8 16 0 7 9 23 20 36 11 13 20 29 20 37 0 17 7 16 55 -10 38 -21 65
-67 32 -54 -9 3 -20 0 -26 -7 -8 -10 -4 -16 14 -26 34 -18 27 -34 -18 -41 -45
-7 -67 -25 -67 -55 0 -13 -9 -29 -20 -36 -26 -16 -25 -24 2 -31 18 -5 19 -9 9
-21 -9 -11 -10 -20 -1 -36 6 -11 8 -24 5 -29 -18 -30 39 -51 67 -23 6 6 22 12
35 12 32 0 31 37 -1 51 -29 14 -41 48 -20 56 12 5 11 9 -5 25 -25 23 -26 32
-5 52 20 21 30 20 54 -4 24 -24 40 -26 40 -5 0 22 24 18 46 -7 10 -12 14 -18
8 -15 -18 11 -37 -20 -30 -48 4 -14 10 -25 14 -25 5 0 17 -6 27 -14 18 -13 18
-14 -3 -36 l-22 -23 22 -16 c16 -11 23 -12 26 -3 2 7 12 12 23 12 15 0 17 -4
10 -22 -5 -13 -15 -23 -22 -23 -14 0 -27 -19 -28 -41 -1 -5 22 -15 49 -20 l51
-11 -5 26 c-19 101 -19 112 4 118 31 8 23 47 -11 51 -24 3 -27 8 -32 54 -8 61
7 99 43 109 23 6 23 7 3 8 -12 1 -24 5 -27 10 -3 5 -14 7 -24 4 -53 -13 -47
68 9 127 21 22 39 44 39 48 0 4 14 16 30 27 17 11 28 26 25 33 -2 6 3 12 11
12 9 0 30 15 48 34 48 51 118 98 130 86 6 -6 -18 -37 -72 -91z m-2032 -329 c0
-6 18 -7 43 -4 30 4 55 1 82 -11 22 -10 48 -17 58 -16 9 1 20 -4 23 -13 3 -8
12 -12 21 -9 8 3 18 1 22 -5 4 -7 23 -13 43 -14 20 -2 34 -6 31 -10 -2 -5 14
-8 36 -8 23 0 41 3 41 8 0 4 41 7 90 7 70 0 93 -3 100 -15 9 -13 11 -13 19 -1
13 20 41 -3 41 -33 0 -17 2 -18 10 -6 14 22 19 8 7 -20 -5 -14 -9 -34 -8 -45
1 -12 -5 -7 -14 14 -8 18 -15 42 -15 52 0 23 -15 25 -24 4 -3 -8 -1 -15 4 -15
5 0 7 -6 4 -13 -3 -8 2 -20 11 -27 8 -7 15 -20 15 -29 -1 -23 -36 -62 -59 -64
-11 0 -18 -4 -15 -8 2 -4 -3 -9 -11 -13 -8 -3 -15 -12 -15 -20 0 -21 -39 -46
-71 -46 -15 0 -29 -6 -32 -14 -4 -9 -19 -13 -49 -11 -24 2 -45 4 -48 5 -3 1
-9 1 -15 0 -5 -1 -29 1 -52 5 -39 6 -42 8 -28 21 23 23 19 24 -21 8 -32 -14
-38 -14 -53 0 -10 9 -32 19 -49 22 -18 4 -32 13 -32 20 0 8 -9 19 -20 26 -11
7 -20 21 -20 30 0 10 -6 18 -14 18 -8 0 -18 9 -21 20 -3 11 -15 20 -26 20 -10
0 -19 7 -19 15 0 8 -5 15 -11 15 -6 0 -9 6 -7 12 5 14 -15 38 -31 38 -11 0
-37 40 -33 53 1 4 -2 7 -8 7 -5 0 -2 9 7 20 10 11 23 20 30 20 7 0 13 5 13 10
0 6 16 10 35 10 19 0 35 -4 35 -10z m378 -1321 c4 2 17 -16 30 -40 14 -24 31
-54 38 -66 16 -25 83 -63 110 -63 10 0 25 -6 33 -14 9 -7 26 -17 39 -20 17 -6
22 -3 22 10 0 14 3 15 12 6 17 -17 38 -15 60 4 14 13 21 14 32 5 11 -9 25 -9
55 -1 29 8 47 8 61 0 12 -6 20 -7 20 -1 0 5 -5 12 -10 14 -6 3 -5 4 2 3 7 -2
12 -13 10 -26 -1 -13 6 -28 15 -36 10 -7 18 -16 18 -21 2 -28 17 -63 29 -63 7
0 25 -12 40 -27 22 -22 34 -26 78 -24 28 1 54 4 59 7 5 2 13 -10 18 -28 5 -18
10 -25 10 -15 1 9 4 17 9 17 21 -1 52 -13 52 -22 0 -5 -4 -7 -9 -3 -5 3 -13 0
-17 -6 -4 -8 -3 -9 4 -5 7 4 12 1 12 -7 0 -12 9 -14 40 -10 42 6 54 -8 23 -25
-14 -9 -14 -11 5 -21 18 -10 21 -9 16 4 -4 8 -1 15 5 15 6 0 12 -15 13 -32 1
-18 2 -42 3 -53 3 -29 36 -105 46 -105 5 0 9 -6 9 -12 1 -16 68 -50 82 -42 6
4 9 1 6 -7 -3 -8 -18 -17 -34 -20 l-29 -7 28 -1 c29 -1 38 -27 12 -37 -8 -4
-15 -16 -15 -28 0 -27 -18 -46 -36 -39 -11 4 -14 -6 -14 -43 0 -27 -7 -58 -15
-68 -8 -11 -15 -37 -15 -58 0 -27 -4 -38 -15 -38 -18 0 -19 -17 -1 -49 l14
-24 12 22 c7 14 17 20 27 17 9 -4 22 -1 30 6 17 14 33 -3 33 -36 0 -14 -6 -17
-25 -14 -20 4 -23 3 -14 -8 6 -8 15 -11 20 -8 5 3 9 0 9 -6 0 -23 -33 -23 -52
0 -16 20 -21 21 -29 9 -11 -18 -11 -26 1 -34 6 -3 10 -13 10 -22 0 -12 -7 -14
-37 -9 -25 4 -33 3 -24 -3 14 -9 6 -35 -9 -26 -14 9 -23 -16 -11 -28 8 -8 11
-8 11 2 0 7 4 10 9 7 11 -7 -12 -58 -35 -76 -11 -10 -13 -24 -8 -57 4 -30 3
-43 -5 -43 -7 0 -24 -12 -38 -26 -19 -19 -23 -28 -14 -37 18 -18 12 -28 -14
-21 -28 7 -30 2 -13 -25 15 -24 4 -51 -22 -51 -11 0 -20 -6 -20 -14 0 -8 -7
-17 -16 -20 -8 -3 -13 -10 -9 -15 3 -5 1 -13 -5 -16 -6 -4 -10 -14 -8 -23 3
-24 -44 -92 -64 -92 -11 0 -20 -11 -24 -27 -4 -16 -12 -32 -18 -38 -6 -5 -22
-25 -35 -42 -12 -18 -31 -33 -42 -33 -21 0 -27 -20 -6 -20 6 -1 1 -7 -12 -14
-13 -7 -34 -31 -47 -52 -13 -21 -41 -50 -61 -64 -21 -14 -39 -36 -41 -48 -2
-15 -10 -22 -25 -22 -38 0 -67 -12 -67 -26 0 -19 -54 -18 -70 1 -7 9 -29 15
-51 15 -28 0 -39 -4 -39 -15 0 -23 -14 -18 -38 15 -13 17 -27 30 -32 30 -6 0
-10 -13 -10 -30 0 -16 -2 -30 -5 -30 -3 0 -26 21 -51 46 l-45 47 6 74 c6 62
10 72 22 62 10 -9 17 -9 25 -1 9 9 9 12 1 12 -16 0 -28 56 -24 113 2 41 0 47
-17 47 -11 0 -22 -6 -25 -14 -3 -7 -15 -16 -26 -19 -18 -4 -21 -1 -21 29 0 33
-1 34 -40 34 l-40 0 0 41 0 41 -45 -3 c-62 -4 -85 18 -85 83 0 30 4 48 12 48
6 0 3 9 -7 20 -15 17 -16 22 -4 36 7 8 13 24 14 35 1 10 10 28 21 40 13 16 15
23 7 26 -9 3 -10 10 -3 23 6 11 13 46 17 80 3 33 10 60 14 60 5 0 9 26 9 58 0
92 28 375 39 405 6 16 11 62 11 103 0 41 4 74 9 74 4 0 11 39 15 88 8 107 20
176 52 312 14 58 26 115 26 128 0 16 6 22 22 22 16 0 18 3 7 9 -11 7 -10 12 5
28 19 20 19 20 42 -1 13 -12 27 -19 30 -17z"/>
<path d="M6878 2045 c-7 -8 2 -86 12 -100 4 -5 11 -28 15 -50 4 -22 10 -44 13
-50 7 -10 12 -44 12 -82 0 -12 8 -26 17 -32 15 -8 15 -11 3 -25 -10 -13 -10
-20 -2 -28 7 -7 12 -22 12 -35 0 -16 6 -23 20 -23 12 0 20 -7 21 -17 0 -11 3
-13 6 -5 2 6 9 12 15 12 6 0 7 -7 4 -16 -4 -9 -1 -23 5 -30 9 -11 8 -14 -5
-14 -9 0 -16 6 -16 14 0 7 -8 16 -17 20 -10 3 -23 8 -29 11 -18 9 -24 -21 -11
-49 14 -30 46 -44 57 -26 14 22 30 2 20 -25 -6 -17 -5 -27 5 -35 8 -6 11 -18
8 -26 -3 -8 2 -23 12 -34 9 -10 14 -24 10 -29 -3 -6 1 -14 10 -17 10 -4 13
-13 10 -25 -7 -20 10 -58 33 -75 11 -8 13 -20 9 -42 -4 -17 -2 -34 3 -37 6 -3
10 -17 10 -31 0 -13 4 -24 10 -24 5 0 9 -8 8 -17 -3 -31 14 -82 28 -87 12 -4
14 19 14 132 0 80 -4 131 -9 123 -6 -9 -11 -10 -15 -2 -4 6 -12 11 -19 11 -8
0 -8 -3 1 -12 7 -7 12 -19 12 -27 -1 -13 -3 -13 -11 2 -6 9 -12 25 -14 35 -2
10 -13 35 -25 57 -14 25 -23 61 -25 104 -5 84 -20 142 -39 157 -9 6 -16 26
-16 44 0 18 -8 47 -19 64 -10 17 -21 47 -25 67 -4 21 -13 42 -21 49 -8 7 -15
23 -15 36 0 13 -5 24 -11 24 -5 0 -8 4 -5 9 3 5 -1 22 -9 37 -8 16 -15 41 -15
55 0 28 -31 75 -42 64z"/>
<path d="M340 721 c0 -7 66 -85 113 -133 9 -10 15 -18 12 -18 -3 0 3 -9 13
-19 9 -10 28 -32 42 -48 70 -82 210 -233 252 -274 26 -25 48 -50 48 -56 0 -6
7 -16 15 -23 24 -20 19 12 -11 78 -15 31 -37 86 -51 122 -13 36 -27 72 -30 80
-3 8 -7 17 -8 20 -9 26 -18 48 -26 62 -5 10 -9 24 -9 32 0 30 -25 23 -27 -8
-2 -20 1 -26 6 -18 5 9 10 0 15 -27 3 -23 11 -41 16 -41 6 0 10 -14 10 -31 0
-20 4 -28 12 -23 8 5 9 2 5 -11 -5 -11 -1 -22 10 -31 17 -13 17 -13 1 -14 -22
0 -24 -20 -3 -20 8 0 15 -7 15 -15 0 -23 -28 -6 -39 23 -5 15 -10 22 -10 15
-1 -11 -51 28 -51 39 0 2 -24 29 -52 59 -55 57 -137 150 -204 231 -38 45 -64
65 -64 49z"/>
<path d="M6731 606 c3 -96 1 -120 -10 -124 -10 -3 -12 1 -8 17 3 11 1 21 -4
21 -5 0 -9 -12 -9 -26 0 -21 4 -25 20 -21 17 4 20 0 20 -24 0 -16 -3 -28 -7
-28 -18 3 -33 -2 -33 -10 0 -5 8 -8 18 -6 9 1 11 0 5 -2 -7 -3 -13 -9 -13 -15
0 -6 -3 -8 -7 -4 -5 4 -11 38 -15 74 l-6 67 2 -72 c1 -40 -2 -73 -6 -73 -4 0
-8 30 -8 66 0 61 -1 66 -20 61 -11 -3 -21 0 -22 6 -1 7 -4 -17 -7 -53 -5 -52
-3 -66 9 -71 8 -4 18 -1 22 5 5 7 8 4 8 -7 0 -14 -5 -16 -25 -11 -15 4 -25 2
-25 -4 0 -6 15 -13 33 -15 l32 -4 -32 -1 c-22 -1 -33 -7 -33 -17 0 -13 4 -14
20 -5 14 7 20 7 20 0 0 -5 -6 -10 -14 -10 -8 0 -17 -10 -19 -22 -4 -23 -4 -23
-6 -1 -1 18 -6 21 -33 18 -18 -2 -25 -1 -15 1 9 3 17 10 17 16 0 5 -7 8 -15 4
-9 -3 -15 0 -15 9 0 9 6 12 15 9 8 -4 15 -1 15 5 0 6 -10 11 -23 11 -20 0 -23
-4 -19 -35 4 -34 29 -54 52 -40 5 3 10 1 10 -6 0 -7 -10 -9 -25 -7 -14 3 -25
0 -26 -6 -1 -22 -18 29 -18 58 -1 26 -4 28 -31 24 -19 -3 -30 0 -30 7 0 8 10
10 25 7 19 -3 25 0 25 13 0 12 -4 15 -12 8 -7 -5 -26 -6 -43 -2 -16 3 -25 7
-18 8 6 0 14 11 16 24 4 21 4 21 6 1 1 -18 6 -21 30 -18 22 3 31 -1 34 -14 3
-12 5 -9 7 8 l2 25 8 -25 c8 -24 8 -24 9 -2 1 12 5 22 10 22 5 0 7 -10 4 -22
-3 -13 -2 -19 3 -15 4 4 11 29 15 55 5 33 6 22 4 -38 -4 -79 -3 -81 6 -30 5
30 6 92 3 138 -6 78 -8 82 -30 82 -18 0 -24 -6 -25 -22 -1 -22 -1 -22 -10 2
-6 17 -7 3 -5 -45 2 -38 1 -59 -1 -45 -6 35 -18 44 -47 36 -19 -5 -26 -13 -26
-31 0 -14 4 -25 9 -25 5 0 7 10 5 23 -2 12 -1 15 2 7 4 -8 12 -18 18 -22 7 -5
6 -8 -4 -8 -10 0 -11 -3 -3 -8 6 -4 -12 -7 -40 -8 -29 0 -44 1 -34 3 18 5 24
33 7 33 -5 0 -10 -4 -10 -9 0 -5 -10 -7 -22 -3 -20 5 -21 3 -15 -46 l6 -50
-57 -10 c-56 -10 -87 -7 -44 5 12 3 22 9 22 14 0 5 -11 4 -25 -1 -28 -11 -29
-11 -15 24 7 20 16 26 37 25 l28 -1 -30 -13 -30 -14 47 2 c44 2 47 3 45 29 -2
32 -3 32 -63 17 -35 -9 -44 -16 -44 -33 0 -11 -5 -28 -11 -36 -8 -12 -9 -8 -6
15 2 17 2 24 0 17 -3 -7 -8 -10 -12 -7 -5 2 -6 -7 -3 -20 2 -14 10 -25 17 -25
7 0 15 -11 17 -25 3 -13 1 -22 -3 -19 -5 3 -9 12 -9 20 0 8 -4 13 -9 10 -5 -3
-11 1 -14 8 -3 8 -15 14 -26 13 -24 -1 -29 -17 -6 -17 8 0 15 -4 15 -10 0 -5
-4 -10 -9 -10 -4 0 -6 -12 -3 -26 5 -25 3 -26 -29 -19 -22 4 -29 3 -21 -3 11
-7 8 -11 -10 -17 -12 -4 -26 -7 -30 -6 -5 1 -8 0 -8 -2 0 -1 -4 -17 -9 -35 -6
-20 -6 -30 0 -27 5 4 9 1 9 -4 0 -6 -5 -11 -11 -11 -15 0 -39 -26 -32 -34 4
-3 3 -6 -2 -6 -4 0 -13 7 -20 17 -8 11 -18 14 -31 8 -37 -16 -82 -5 -68 16 3
5 0 9 -5 9 -14 0 -14 -17 -1 -25 7 -4 6 -13 -1 -26 -5 -11 -8 -25 -6 -32 2 -7
1 -22 -4 -33 -10 -28 -2 -36 23 -23 27 15 44 -2 29 -29 -10 -19 -5 -19 389
-19 355 1 400 2 401 16 0 14 1 14 7 0 5 -13 21 -17 70 -17 60 0 62 1 63 27 2
22 2 23 6 4 4 -21 27 -30 81 -31 19 -1 21 2 12 19 -6 10 -15 19 -20 19 -6 0
-10 4 -10 9 0 4 12 8 28 7 23 -1 27 -5 24 -28 -3 -27 -2 -28 42 -28 30 0 46 4
46 13 0 7 3 8 8 2 12 -17 59 -17 76 0 12 12 16 34 15 83 -1 46 -3 59 -8 42 -7
-21 -9 -17 -18 30 -6 30 -11 45 -12 33 -2 -36 -21 -37 -22 -1 -1 18 -1 38 1
43 1 6 -4 5 -10 -2 -7 -6 -11 -29 -8 -52 2 -23 0 -41 -4 -41 -5 0 -8 23 -8 50
0 43 -3 50 -17 48 -15 -2 -17 3 -15 30 2 20 -1 32 -9 32 -11 0 -11 -6 7 -165
4 -37 3 -38 -6 -10 -5 17 -13 63 -16 103 -5 54 -10 72 -22 72 -12 0 -14 13 -9
78 3 42 2 100 -2 127 -7 41 -9 27 -11 -80 -3 -121 -4 -125 -10 -55 -4 41 -7
63 -8 48 -1 -16 -6 -28 -10 -28 -5 0 -8 37 -7 83 l3 82 -11 -75 c-11 -74 -11
-74 -17 -30 -7 59 -24 58 -28 -2 -2 -27 -7 -48 -12 -48 -5 0 -7 46 -5 103 2
61 0 90 -5 72 -5 -21 -8 -24 -10 -10 l-1 20 -9 -20 c-5 -11 -10 -54 -11 -95
l-3 -75 -6 80 c-6 78 -6 77 -10 -50 l-4 -130 -6 130 -6 130 -3 -125 -4 -125
-8 114 c-11 150 -20 166 -13 24 l5 -113 -25 0 c-18 0 -26 6 -28 18 0 9 -4 -3
-8 -28 l-7 -45 -1 43 c-2 40 -4 43 -24 37 -18 -5 -20 -4 -8 4 8 6 23 11 33 11
13 0 16 6 12 23 -2 12 -7 87 -10 166 -2 79 -8 147 -11 150 -3 3 -5 -48 -3
-113z"/>
<path d="M1639 233 c5 -10 5 -26 0 -40 -7 -19 -5 -23 12 -23 18 0 20 4 15 25
-7 29 9 34 23 6 8 -14 7 -22 -4 -31 -22 -19 -8 -30 38 -31 45 -1 38 -4 -35
-14 -27 -3 -48 -11 -48 -16 0 -6 4 -7 10 -4 22 14 70 13 70 0 0 -9 -6 -12 -15
-8 -9 3 -15 2 -14 -3 4 -23 -3 -33 -23 -37 -20 -4 -19 -4 5 -6 18 -1 27 4 27
14 0 8 7 15 15 15 8 0 15 9 15 20 0 11 7 20 15 20 8 0 15 -8 15 -17 0 -15 -2
-16 -10 -3 -8 13 -10 12 -10 -4 0 -13 5 -17 18 -14 10 3 23 -1 30 -9 7 -7 21
-13 32 -13 25 0 36 -19 20 -33 -10 -9 -12 -8 -7 5 4 12 1 18 -8 18 -8 0 -12
-6 -9 -13 2 -7 -4 -13 -16 -14 -11 -1 -20 3 -20 8 0 6 5 7 10 4 6 -3 10 -2 10
4 0 5 -4 13 -10 16 -5 3 -10 2 -10 -2 0 -5 -12 -14 -27 -21 -22 -9 -23 -11 -5
-8 12 2 22 0 22 -4 0 -5 -10 -10 -22 -12 -13 -3 6 -4 42 -4 36 0 68 5 72 11 5
7 8 7 8 0 0 -6 36 -11 85 -12 69 -1 85 1 85 13 0 8 11 19 24 24 13 5 26 15 29
22 4 11 7 10 15 -1 13 -19 34 -4 27 20 -5 15 -1 19 16 19 12 0 20 3 17 6 -3 3
-40 6 -82 7 -66 2 -76 0 -76 -15 0 -12 -7 -18 -22 -17 -22 0 -22 1 -3 9 15 7
16 9 4 9 -9 1 -22 8 -30 17 -8 10 -21 13 -37 9 -20 -5 -22 -4 -10 9 7 7 16 12
19 10 4 -2 9 2 12 9 3 9 -5 12 -32 9 -27 -2 -32 -1 -21 7 13 9 13 11 -2 11
-18 0 -23 -11 -11 -24 15 -14 11 -36 -7 -36 -10 0 -22 -5 -26 -11 -5 -9 8 -10
45 -7 l51 5 0 -33 c0 -18 -4 -36 -10 -39 -5 -3 -10 1 -10 10 0 26 -26 45 -60
45 -25 0 -31 3 -26 16 3 9 6 18 6 20 0 2 7 4 15 4 8 0 15 5 15 11 0 5 -4 8 -8
5 -5 -3 -16 3 -24 14 -16 18 -52 18 -64 -1 -3 -5 -26 -9 -51 -9 -26 0 -43 3
-39 7 3 4 26 7 49 6 25 0 31 1 15 4 -26 4 -40 23 -17 23 5 0 8 4 4 9 -3 6 3
15 12 21 16 10 16 11 1 6 -10 -3 -20 -1 -23 4 -3 5 5 11 17 13 13 2 -8 5 -45
6 -61 1 -67 -1 -58 -16z"/>
</g>
</svg>
